/* XPM */
static char *result[] = {
/* columns rows colors chars-per-pixel */
"16 16 6 1 ",
"  c #1F6407",
". c #397331",
"X c #40BE14",
"o c #449328",
"O c #43AD34",
"+ c #42CB12",
/* pixels */
"........O...o...",
"..O....+........",
"O.....O....... O",
". X........O....",
"...........OX...",
"................",
".ooO............",
"...Oo...........",
"........+ ......",
"......  ........",
"..............O.",
".. O........OO..",
"...OO...X..o....",
"OO.............O",
"..+X....... ..O.",
"........O...o..."
};
