/* XPM */
static char *result[] = {
/* columns rows colors chars-per-pixel */
"16 16 6 1 ",
"  c #104870",
". c #211699",
"X c #284EA0",
"o c #2B7EBB",
"O c #2029C6",
"+ c #4A51D3",
/* pixels */
"........X... ...",
"..+....X........",
"o..... .......Oo",
". O........o....",
"...........o ...",
"................",
".OO+............",
"...++...........",
"........++......",
"......OO........",
".............. .",
".. o........OO..",
"...oo...O.. ....",
"oo.............o",
"..OO....... ..+.",
"........X... ..."
};
